#!OML:ASF H:\Terrain\Walking\May29\JustinRory\Justin.ASF
:FULLY-SPECIFIED
:DEGREES
196
root 16.8416 9.82256 -6.7605 15.1023 -84.1491 -43.2626
lowerback 35.0158 7.8498 4.87832
upperback 7.75391 10.9873 1.04157
thorax -8.23829 4.786 -5.41847
lowerneck -20.0064 -0.00318899 -7.8243
upperneck 3.11456 1.05883 8.57569
head 4.02886 0.914672 4.05219
rclavicle 1.60022e-014 4.21423e-014
rhumerus 74.4146 22.1499 -57.0722
rradius 50.2669
rwrist -21.2258
rhand -24.5525 18.7048
rfingers 7.12502
rthumb 1.94377 -11.2661
lclavicle 1.60022e-014 4.21423e-014
lhumerus 13.737 -52.8323 89.1686
lradius 42.1525
lwrist -9.01247
lhand -14.6676 34.1403
lfingers 7.12502
lthumb 11.4853 63.8057
rfemur -60.3542 -23.1391 19.9418
rtibia 73.5615
rfoot 17.6763 3.13681
rtoes 17.9667
lfemur -62.251 1.43263 -8.91699
ltibia 73.1952
lfoot 20.2853 -5.20754
ltoes 15.4741
197
root 16.8393 9.83239 -6.75601 13.9054 -84.1667 -41.971
lowerback 34.6061 7.77067 4.61537
upperback 7.73595 10.8056 1.11996
thorax -8.18446 4.71339 -5.11022
lowerneck -19.8077 -0.0680919 -8.56914
upperneck 3.11449 1.07463 9.33698
head 3.99491 0.9552 4.41662
rclavicle -5.34731e-014 1.66979e-014
rhumerus 75.3208 23.2108 -56.1261
rradius 47.7836
rwrist -20.0308
rhand -24.4868 19.2306
rfingers 7.12502
rthumb 2.0072 -10.7397
lclavicle -5.34731e-014 1.66979e-014
lhumerus 13.6525 -52.3004 89.1514
lradius 42.1967
lwrist -8.16292
lhand -14.0301 34.2472
lfingers 7.12502
lthumb 12.1001 63.8774
rfemur -60.4902 -23.1958 19.7717
rtibia 73.6554
rfoot 17.7931 3.03334
rtoes 19.6881
lfemur -62.3243 1.42849 -9.16299
ltibia 73.2202
lfoot 20.1228 -5.93476
ltoes 11.9093
198
root 16.8328 9.83445 -6.74045 11.3773 -84.1975 -39.3919
lowerback 34.4021 7.70853 4.52733
upperback 7.59949 10.7041 0.998222
thorax -8.26091 4.6713 -5.15319
lowerneck -19.7912 -0.2499 -8.7724
upperneck 3.46717 0.828434 9.75834
head 4.12536 0.858807 4.56957
rclavicle 1.47101e-014 2.8625e-014
rhumerus 76.2022 24.1161 -54.6835
rradius 45.0356
rwrist -20.138
rhand -25.1039 20.0414
rfingers 7.12502
rthumb 1.41121 -9.93367
lclavicle 1.47101e-014 2.8625e-014
lhumerus 13.3818 -52.0733 89.2304
lradius 42.174
lwrist -7.24788
lhand -13.0558 33.3369
lfingers 7.12502
lthumb 13.0394 62.9093
rfemur -60.5704 -23.3173 19.452
rtibia 73.7519
rfoot 17.8295 3.2862
rtoes 19.4806
lfemur -62.5174 1.35667 -9.73641
ltibia 73.3166
lfoot 19.8136 -7.45882
ltoes 3.30063
199
root 16.8189 9.82148 -6.71292 9.53867 -84.1077 -37.6203
lowerback 34.3262 7.56246 4.95128
upperback 7.51192 10.6519 0.735574
thorax -8.21401 4.65448 -5.61801
lowerneck -19.8264 -0.531952 -8.60229
upperneck 3.75332 0.383074 9.93354
head 4.26429 0.655998 4.56412
rclavicle 7.82218e-014 7.95139e-015
rhumerus 77.1798 24.6264 -52.6141
rradius 42.1043
rwrist -20.2106
rhand -26.2471 20.5614
rfingers 7.12502
rthumb 0.307106 -9.41809
lclavicle 7.82218e-014 7.95139e-015
lhumerus 13.5037 -52.5017 88.785
lradius 42.3521
lwrist -5.9352
lhand -11.9774 32.495
lfingers 7.12502
lthumb 14.0788 61.9981
rfemur -60.5521 -23.6798 19.2009
rtibia 73.8502
rfoot 17.958 3.4337
rtoes 19.1703
lfemur -62.4477 0.813512 -9.66028
ltibia 73.4806
lfoot 20.047 -5.57019
ltoes 12.372
200
root 16.8085 9.81825 -6.69421 8.42572 -84.0644 -36.6152
lowerback 34.102 7.49528 5.42896
upperback 7.69192 10.6763 0.481907
thorax -7.80084 4.69518 -6.08331
lowerneck -19.6355 -0.86561 -8.92551
upperneck 3.23103 -0.0590565 10.8497
head 4.12633 0.480112 4.86605
rclavicle -1.88845e-015 -1.27222e-014
rhumerus 78.249 24.6765 -50.7385
rradius 39.2466
rwrist -18.1398
rhand -26.7457 19.4313
rfingers 7.12502
rthumb -0.174454 -10.5484
lclavicle -1.88845e-015 -1.27222e-014
lhumerus 14.5175 -53.1481 87.5682
lradius 42.6084
lwrist -4.46905
lhand -10.9734 31.9246
lfingers 7.12502
lthumb 15.0461 61.3579
rfemur -60.4476 -23.9105 18.9776
rtibia 73.9331
rfoot 18.1193 3.23786
rtoes 20.4421
lfemur -62.3177 0.423556 -9.6584
ltibia 73.6037
lfoot 19.9072 -4.52087
ltoes 16.5965
201
root 16.7974 9.81542 -6.69783 6.98754 -84.1319 -35.2004
lowerback 33.9283 7.65365 5.38003
upperback 7.76926 10.8422 0.424939
thorax -7.62921 4.78927 -6.14691
lowerneck -18.6879 -1.16357 -9.76018
upperneck 1.90927 -0.367706 12.1865
head 3.62777 0.353181 5.38466
rclavicle -8.84592e-015 3.02153e-014
rhumerus 79.0269 24.8991 -49.2645
rradius 36.3598
rwrist -15.0764
rhand -26.4471 18.2759
rfingers 7.12502
rthumb 0.113936 -11.7038
lclavicle -8.84592e-015 3.02153e-014
lhumerus 14.9859 -53.3336 87.1062
lradius 42.8802
lwrist -3.69787
lhand -9.36074 31.3182
lfingers 7.12502
lthumb 16.5992 60.6283
rfemur -60.471 -23.8391 18.8393
rtibia 74.0224
rfoot 17.9349 3.65435
rtoes 18.459
lfemur -62.2794 0.443371 -9.87036
ltibia 73.6521
lfoot 19.7577 -5.36723
ltoes 11.463
202
root 16.7958 9.81707 -6.70181 5.47838 -84.2018 -33.7292
lowerback 33.9421 7.82905 5.09988
upperback 7.58495 11.0119 0.539801
thorax -7.88868 4.85688 -5.96798
lowerneck -18.7489 -1.30322 -9.78454
upperneck 2.51706 -0.593316 12.3275
head 3.85009 0.259344 5.42343
rclavicle -1.3746e-013 -1.98785e-014
rhumerus 79.7408 25.7093 -47.5099
rradius 33.4055
rwrist -12.6909
rhand -26.0471 17.5062
rfingers 7.12502
rthumb 0.500256 -12.473
lclavicle -1.3746e-013 -1.98785e-014
lhumerus 14.247 -52.8338 87.8578
lradius 43.2488
lwrist -3.75182
lhand -7.19924 31.0806
lfingers 7.12502
lthumb 18.6792 60.2038
rfemur -60.4762 -23.7544 18.6356
rtibia 74.1187
rfoot 17.7379 3.80583
rtoes 18.0046
lfemur -62.3153 0.788268 -10.3911
ltibia 73.6857
lfoot 19.4746 -7.32901
ltoes 1.262
203
root 16.7963 9.81801 -6.70401 5.71089 -84.1747 -33.9719
lowerback 33.9081 7.87588 5.11837
upperback 7.38512 11.1188 0.619048
thorax -8.09657 4.89781 -5.95001
lowerneck -19.6052 -1.39399 -8.46786
upperneck 3.99979 -0.892194 10.5743
head 4.4391 0.0690401 4.63485
rclavicle -7.14631e-014 3.33958e-014
rhumerus 80.7267 26.4699 -45.0342
rradius 30.8179
rwrist -11.5027
rhand -25.5725 15.6285
rfingers 7.12502
rthumb 0.958637 -14.3491
lclavicle -7.14631e-014 3.33958e-014
lhumerus 13.7163 -52.3926 88.1622
lradius 43.6651
lwrist -3.67097
lhand -5.55273 30.7022
lfingers 7.12502
lthumb 20.2623 59.6653
rfemur -60.4681 -23.69 18.5621
rtibia 74.2318
rfoot 17.6595 3.26088
rtoes 20.2147
lfemur -62.1986 0.829025 -10.1517
ltibia 73.7229
lfoot 19.803 -5.52619
ltoes 11.7975
204
root 16.7875 9.80031 -6.7073 8.84604 -84.0824 -36.9006
lowerback 33.5877 7.78833 5.44207
upperback 7.20433 11.1439 0.633535
thorax -8.11689 4.91412 -6.09077
lowerneck -19.8716 -1.343 -7.83563
upperneck 4.57355 -0.913261 9.79719
head 4.64692 0.0330868 4.28576
rclavicle -5.37713e-014 3.49861e-014
rhumerus 81.807 27.1152 -42.4403
rradius 28.7574
rwrist -10.9543
rhand -24.6571 12.6522
rfingers 7.12502
rthumb 1.84276 -17.3196
lclavicle -5.37713e-014 3.49861e-014
lhumerus 13.5884 -51.8512 87.8066
lradius 44.0517
lwrist -4.0008
lhand -3.32039 28.8517
lfingers 7.12502
lthumb 22.4065 57.5722
rfemur -60.743 -23.5815 19.0362
rtibia 74.3218
rfoot 17.5492 3.15957
rtoes 19.7331
lfemur -62.5267 0.944706 -9.7094
ltibia 73.8617
lfoot 19.7609 -4.55158
ltoes 16.5143
